<svg width="106" height="15" viewBox="0 0 106 15" fill="none" xmlns="http://www.w3.org/2000/svg">
<path d="M5.41193 14.9574C4.28977 14.9574 3.32386 14.7301 2.5142 14.2756C1.70928 13.8163 1.08901 13.1676 0.653409 12.3295C0.217803 11.4867 -5.06639e-07 10.4901 -5.06639e-07 9.33949C-5.06639e-07 8.21733 0.217803 7.23248 0.653409 6.38494C1.08901 5.53741 1.70218 4.87689 2.4929 4.40341C3.28835 3.92992 4.22112 3.69318 5.29119 3.69318C6.01089 3.69318 6.68087 3.80919 7.30114 4.04119C7.92614 4.26847 8.47064 4.61174 8.93466 5.07102C9.40341 5.5303 9.76799 6.10796 10.0284 6.80398C10.2888 7.49527 10.419 8.30492 10.419 9.23296V10.0639H1.20739V8.18892H7.57102C7.57102 7.75332 7.47633 7.36743 7.28693 7.03125C7.09754 6.69508 6.83475 6.43229 6.49858 6.2429C6.16714 6.04877 5.78125 5.95171 5.34091 5.95171C4.88163 5.95171 4.47443 6.05824 4.11932 6.27131C3.76894 6.47964 3.49432 6.76136 3.29545 7.11648C3.09659 7.46686 2.99479 7.85748 2.99006 8.28835V10.071C2.99006 10.6108 3.08949 11.0772 3.28835 11.4702C3.49195 11.8632 3.77841 12.1662 4.14773 12.3793C4.51704 12.5923 4.95502 12.6989 5.46165 12.6989C5.79782 12.6989 6.10559 12.6515 6.38494 12.5568C6.6643 12.4621 6.90341 12.3201 7.10227 12.1307C7.30114 11.9413 7.45265 11.7093 7.55682 11.4347L10.3551 11.6193C10.2131 12.2917 9.92187 12.8788 9.48153 13.3807C9.04593 13.8778 8.48248 14.2661 7.79119 14.5455C7.10464 14.8201 6.31155 14.9574 5.41193 14.9574ZM15.419 8.4375V14.7443H12.3935V3.83523H15.277V5.75994H15.4048C15.6463 5.12547 16.0511 4.62358 16.6193 4.25426C17.1875 3.88021 17.8764 3.69318 18.6861 3.69318C19.4437 3.69318 20.1042 3.8589 20.6676 4.19034C21.2311 4.52178 21.669 4.99527 21.9815 5.6108C22.294 6.22159 22.4503 6.95076 22.4503 7.7983V14.7443H19.4247V8.33807C19.4295 7.67046 19.259 7.14962 18.9134 6.77557C18.5677 6.39678 18.0919 6.20739 17.4858 6.20739C17.0786 6.20739 16.7187 6.29498 16.4062 6.47017C16.0985 6.64536 15.857 6.90104 15.6818 7.23722C15.5114 7.56866 15.4238 7.96875 15.419 8.4375ZM27.5763 11.6051L27.5835 7.97585H28.0238L31.5181 3.83523H34.9911L30.2965 9.31818H29.5792L27.5763 11.6051ZM24.8349 14.7443V0.198864H27.8604V14.7443H24.8349ZM31.6531 14.7443L28.4428 9.9929L30.4599 7.85511L35.1971 14.7443H31.6531ZM39.5863 14.9503C38.8903 14.9503 38.27 14.8295 37.7255 14.5881C37.181 14.3419 36.7501 13.9796 36.4329 13.5014C36.1204 13.0185 35.9641 12.4171 35.9641 11.6974C35.9641 11.0914 36.0754 10.5824 36.2979 10.1705C36.5205 9.75852 36.8235 9.42708 37.207 9.17614C37.5906 8.92519 38.0262 8.7358 38.5138 8.60796C39.0063 8.48011 39.5224 8.39015 40.0621 8.33807C40.6966 8.27178 41.208 8.21023 41.5962 8.15341C41.9845 8.09186 42.2662 8.00189 42.4414 7.88352C42.6166 7.76515 42.7042 7.58996 42.7042 7.35796V7.31534C42.7042 6.86553 42.5621 6.51752 42.2781 6.27131C41.9987 6.0251 41.601 5.90199 41.0849 5.90199C40.5404 5.90199 40.1071 6.02273 39.7852 6.26421C39.4632 6.50095 39.2501 6.79924 39.146 7.15909L36.3477 6.93182C36.4897 6.26894 36.7691 5.69602 37.1857 5.21307C37.6024 4.72538 38.1398 4.35133 38.7979 4.09091C39.4608 3.82576 40.2279 3.69318 41.0991 3.69318C41.7051 3.69318 42.2852 3.76421 42.8391 3.90625C43.3978 4.0483 43.8926 4.26847 44.3235 4.56676C44.7591 4.86506 45.1024 5.24858 45.3533 5.71733C45.6043 6.18135 45.7298 6.73769 45.7298 7.38636V14.7443H42.8604V13.2315H42.7752C42.6 13.5724 42.3656 13.8731 42.0721 14.1335C41.7785 14.3892 41.4258 14.5904 41.0138 14.7372C40.6019 14.8793 40.1261 14.9503 39.5863 14.9503ZM40.4528 12.8622C40.8978 12.8622 41.2908 12.7746 41.6317 12.5994C41.9727 12.4195 42.2402 12.178 42.4343 11.875C42.6284 11.572 42.7255 11.2287 42.7255 10.8452V9.6875C42.6308 9.74905 42.5006 9.80587 42.3349 9.85796C42.1739 9.9053 41.9916 9.95028 41.788 9.9929C41.5844 10.0308 41.3808 10.0663 41.1772 10.0994C40.9736 10.1278 40.7889 10.1539 40.6232 10.1776C40.2681 10.2296 39.958 10.3125 39.6928 10.4261C39.4277 10.5398 39.2217 10.6937 39.0749 10.8878C38.9281 11.0772 38.8548 11.3139 38.8548 11.598C38.8548 12.0099 39.0039 12.3248 39.3022 12.5426C39.6052 12.7557 39.9888 12.8622 40.4528 12.8622ZM48.1339 14.7443V0.198864H51.1594V5.66761H51.2518C51.3844 5.37405 51.5761 5.07576 51.8271 4.77273C52.0827 4.46496 52.4142 4.20928 52.8214 4.00568C53.2333 3.79735 53.7447 3.69318 54.3555 3.69318C55.1509 3.69318 55.8848 3.90152 56.5572 4.31818C57.2295 4.73011 57.7669 5.35275 58.1694 6.18608C58.5719 7.01468 58.7731 8.05398 58.7731 9.30398C58.7731 10.5208 58.5766 11.5483 58.1836 12.3864C57.7953 13.2197 57.265 13.8518 56.5927 14.2827C55.9251 14.7088 55.177 14.9219 54.3484 14.9219C53.7612 14.9219 53.2617 14.8248 52.8498 14.6307C52.4426 14.4366 52.1088 14.1927 51.8484 13.8991C51.5879 13.6009 51.3891 13.3002 51.2518 12.9972H51.1168V14.7443H48.1339ZM51.0955 9.28977C51.0955 9.93845 51.1855 10.5043 51.3654 10.9872C51.5453 11.4702 51.8058 11.8466 52.1467 12.1165C52.4876 12.3816 52.9019 12.5142 53.3896 12.5142C53.882 12.5142 54.2987 12.3793 54.6396 12.1094C54.9805 11.8348 55.2385 11.456 55.4137 10.973C55.5936 10.4853 55.6836 9.92424 55.6836 9.28977C55.6836 8.66004 55.596 8.10606 55.4208 7.62784C55.2456 7.14962 54.9876 6.77557 54.6467 6.50568C54.3058 6.2358 53.8867 6.10085 53.3896 6.10085C52.8971 6.10085 52.4805 6.23106 52.1396 6.49148C51.8034 6.75189 51.5453 7.12121 51.3654 7.59943C51.1855 8.07765 51.0955 8.6411 51.0955 9.28977Z" fill="black"/>
<path d="M73.6825 5.29119H70.5717C70.5149 4.88873 70.3989 4.53125 70.2237 4.21875C70.0485 3.90152 69.8236 3.63163 69.549 3.40909C69.2744 3.18655 68.9571 3.0161 68.5973 2.89773C68.2422 2.77936 67.8563 2.72017 67.4396 2.72017C66.6868 2.72017 66.031 2.9072 65.4723 3.28125C64.9136 3.65057 64.4804 4.19034 64.1726 4.90057C63.8648 5.60606 63.7109 6.46307 63.7109 7.47159C63.7109 8.50852 63.8648 9.37974 64.1726 10.0852C64.4851 10.7907 64.9207 11.3234 65.4794 11.6832C66.0381 12.0431 66.6844 12.223 67.4183 12.223C67.8303 12.223 68.2114 12.1686 68.5618 12.0597C68.9169 11.9508 69.2318 11.7921 69.5064 11.5838C69.781 11.3707 70.0083 11.1127 70.1882 10.8097C70.3729 10.5066 70.5007 10.161 70.5717 9.77273L73.6825 9.78693C73.602 10.4545 73.4008 11.0985 73.0788 11.7188C72.7616 12.3343 72.3331 12.8859 71.7933 13.3736C71.2583 13.8565 70.6191 14.2401 69.8757 14.5241C69.1371 14.8035 68.3014 14.9432 67.3686 14.9432C66.0713 14.9432 64.9112 14.6496 63.8885 14.0625C62.8705 13.4754 62.0656 12.6255 61.4737 11.5128C60.8866 10.4001 60.593 9.05303 60.593 7.47159C60.593 5.88542 60.8913 4.53599 61.4879 3.4233C62.0845 2.31061 62.8942 1.46307 63.9169 0.880683C64.9396 0.293561 66.0902 2.38419e-07 67.3686 2.38419e-07C68.2114 2.38419e-07 68.9927 0.118371 69.7124 0.355114C70.4368 0.591856 71.0784 0.9375 71.6371 1.39205C72.1958 1.84186 72.6503 2.39347 73.0007 3.04688C73.3558 3.70028 73.5831 4.44839 73.6825 5.29119ZM75.8878 0.198864H79.6804L83.6861 9.97159H83.8565L87.8622 0.198864H91.6548V14.7443H88.6719V5.27699H88.5511L84.7869 14.6733H82.7557L78.9915 5.24148H78.8707V14.7443H75.8878V0.198864ZM102.079 4.3821C102.022 3.80919 101.779 3.36411 101.348 3.04688C100.917 2.72964 100.332 2.57102 99.5934 2.57102C99.0915 2.57102 98.6677 2.64205 98.3221 2.78409C97.9764 2.9214 97.7113 3.11316 97.5266 3.35938C97.3467 3.60559 97.2567 3.88494 97.2567 4.19744C97.2473 4.45786 97.3017 4.68513 97.4201 4.87926C97.5432 5.07339 97.7113 5.24148 97.9244 5.38352C98.1374 5.52083 98.3836 5.64157 98.663 5.74574C98.9424 5.84517 99.2406 5.9304 99.5579 6.00142L100.865 6.31392C101.499 6.45597 102.082 6.64536 102.612 6.8821C103.142 7.11885 103.601 7.41004 103.99 7.75568C104.378 8.10133 104.679 8.50852 104.892 8.97727C105.109 9.44602 105.221 9.98343 105.225 10.5895C105.221 11.4796 104.993 12.2514 104.544 12.9048C104.099 13.5535 103.455 14.0578 102.612 14.4176C101.774 14.7727 100.763 14.9503 99.5792 14.9503C98.4049 14.9503 97.3822 14.7704 96.511 14.4105C95.6445 14.0507 94.9674 13.518 94.4798 12.8125C93.9968 12.1023 93.7435 11.224 93.7198 10.1776H96.6957C96.7288 10.6652 96.8685 11.0724 97.1147 11.3991C97.3656 11.7211 97.6995 11.965 98.1161 12.1307C98.5375 12.2917 99.0134 12.3722 99.5437 12.3722C100.065 12.3722 100.517 12.2964 100.9 12.1449C101.288 11.9934 101.589 11.7827 101.802 11.5128C102.015 11.2429 102.122 10.9328 102.122 10.5824C102.122 10.2557 102.025 9.98106 101.831 9.75852C101.641 9.53599 101.362 9.34659 100.993 9.19034C100.628 9.03409 100.181 8.89205 99.6502 8.76421L98.0664 8.36648C96.8401 8.06818 95.8718 7.6018 95.1616 6.96733C94.4513 6.33286 94.0986 5.47822 94.1033 4.40341C94.0986 3.52273 94.333 2.75331 94.8065 2.09517C95.2847 1.43703 95.9405 0.923296 96.7738 0.553978C97.6071 0.184659 98.5541 2.38419e-07 99.6147 2.38419e-07C100.694 2.38419e-07 101.636 0.184659 102.441 0.553978C103.251 0.923296 103.881 1.43703 104.331 2.09517C104.78 2.75331 105.012 3.51563 105.027 4.3821H102.079Z" fill="#A7A7A7"/>
</svg>
